<svg xmlns="http://www.w3.org/2000/svg" viewBox="0 0 1920 921" preserveAspectRatio="xMidYMid" width="1920" height="921" xmlns:xlink="http://www.w3.org/1999/xlink" style="shape-rendering:auto;display:block;background-position-x:0%;background-position-y:0%;background-size:auto;background-origin:padding-box;background-clip:border-box;background:scroll rgb(210, 211, 212) none  repeat;width:1920px;height:921px;;animation:none"><g style="transform:matrix(1, 0, 0, -1, 0, 921);;animation:none"><linearGradient y2="0" y1="0" x2="1" x1="0" id="lg-ca780xlr0a"><stop offset="0" stop-color="#d8d8d8"></stop>

  
<stop offset="1" stop-color="#ffffff"></stop></linearGradient>
<path opacity="0.4" fill="url(#lg-ca780xlr0a)" d="M 0 0 L 0 551.11 Q 192 580.08 384 536.96 T 768 496.45 T 1152 514.24 T 1536 312.79 T 1920 263.27 L 1920 0 Z" style="fill:url('#lg-ca780xlr0a');opacity:0.4;;animation:none"></path>
<path opacity="0.4" fill="url(#lg-ca780xlr0a)" d="M 0 0 L 0 617.978 Q 192 559.596 384 537.931 T 768 515.374 T 1152 381.281 T 1536 420.206 T 1920 363.3 L 1920 0 Z" style="fill:url('#lg-ca780xlr0a');opacity:0.4;;animation:none"></path>
<path opacity="0.4" fill="url(#lg-ca780xlr0a)" d="M 0 0 L 0 672.234 Q 192 542.025 384 505.275 T 768 438.719 T 1152 441.457 T 1536 416.43 T 1920 381.876 L 1920 0 Z" style="fill:url('#lg-ca780xlr0a');opacity:0.4;;animation:none"></path>
<path opacity="0.4" fill="url(#lg-ca780xlr0a)" d="M 0 0 L 0 554.582 Q 192 567.932 384 523.726 T 768 492.646 T 1152 425.43 T 1536 407.237 T 1920 258.489 L 1920 0 Z" style="fill:url('#lg-ca780xlr0a');opacity:0.4;;animation:none"></path>
<path opacity="0.4" fill="url(#lg-ca780xlr0a)" d="M 0 0 L 0 556.199 Q 192 618.575 384 588.548 T 768 509.172 T 1152 390.099 T 1536 403.969 T 1920 347.781 L 1920 0 Z" style="fill:url('#lg-ca780xlr0a');opacity:0.4;;animation:none"></path>
<g></g></g><!-- [ldio] generated by https://loading.io --></svg>