<svg xmlns="http://www.w3.org/2000/svg" viewBox="0 0 1920 921" preserveAspectRatio="xMidYMid" width="1920" height="921" xmlns:xlink="http://www.w3.org/1999/xlink" style="shape-rendering:auto;display:block;background-position-x:0%;background-position-y:0%;background-size:auto;background-origin:padding-box;background-clip:border-box;background:scroll rgb(255, 255, 255) none  repeat;width:1920px;height:921px;;animation:none"><g style="transform:matrix(1, 0, 0, -1, 0, 921);;animation:none"><defs><linearGradient y2="1" y1="0" x2="0" x1="0" id="lg-bk-jg6mq6wfbyj"><stop offset="0" stop-opacity="0" stop-color="#a64cc5"></stop>

  
<stop offset="0.8250000000000001" stop-opacity="1" stop-color="#a64cc5"></stop></linearGradient>


<linearGradient y2="1" y1="0" x2="0" x1="0" id="lg-oersv4ab58c"><stop offset="0" stop-color="#870daa"></stop>

  
<stop offset="0.37" stop-color="#a64cc5"></stop>

  
<stop offset="1" stop-color="#870daa"></stop></linearGradient></defs>


<rect fill="url(#lg-bk-jg6mq6wfbyj)" height="921" width="1920" y="0" x="0" style="fill:url('#lg-bk-jg6mq6wfbyj');;animation:none"></rect>
<g transform="matrix(1,0,0,1,0,0)" style="transform:matrix(1, 0, 0, 1, 0, 0);;animation:none"><path opacity="0.4" fill="url(#lg-oersv4ab58c)" d="M0 607.86
C960 607.86 960 698.6706 1920 698.6706
C2880 698.6706 2880 607.86 3840 607.86
C4800 607.86 4800 698.6706 5760 698.6706
C6720 698.6706 6720 607.86 7680 607.86
L7680 921 L0 921 Z" transform="matrix(1,0,0,1,-3840,0)" style="fill:url('#lg-oersv4ab58c');transform:matrix(1, 0, 0, 1, -3840, 0);opacity:0.4;;animation:none"></path></g>
<g transform="matrix(1,0,0,1,0,7.311387062072754)" style="transform:matrix(1, 0, 0, 1, 0, 7.31139);;animation:none"><path opacity="0.4" fill="url(#lg-oersv4ab58c)" d="M0 607.86
C960 607.86 960 698.6706 1920 698.6706
C2880 698.6706 2880 607.86 3840 607.86
C4800 607.86 4800 698.6706 5760 698.6706
C6720 698.6706 6720 607.86 7680 607.86
L7680 921 L0 921 Z" transform="matrix(1,0,0,1,-3660.80029296875,0)" style="fill:url('#lg-oersv4ab58c');transform:matrix(1, 0, 0, 1, -3660.8, 0);opacity:0.4;;animation:none"></path></g>
<g transform="matrix(1,0,0,1,0,7.3113884925842285)" style="transform:matrix(1, 0, 0, 1, 0, 7.31139);;animation:none"><path opacity="0.4" fill="url(#lg-oersv4ab58c)" d="M0 607.86
C960 607.86 960 698.6706 1920 698.6706
C2880 698.6706 2880 607.86 3840 607.86
C4800 607.86 4800 698.6706 5760 698.6706
C6720 698.6706 6720 607.86 7680 607.86
L7680 921 L0 921 Z" transform="matrix(1,0,0,1,-3481.60009765625,0)" style="fill:url('#lg-oersv4ab58c');transform:matrix(1, 0, 0, 1, -3481.6, 0);opacity:0.4;;animation:none"></path></g>
<g></g></g><!-- [ldio] generated by https://loading.io --></svg>