<svg xmlns="http://www.w3.org/2000/svg" viewBox="0 0 1920 921" preserveAspectRatio="xMidYMid" width="1920" height="921" xmlns:xlink="http://www.w3.org/1999/xlink" style="shape-rendering:auto;display:block;background-position-x:0%;background-position-y:0%;background-size:auto;background-origin:padding-box;background-clip:border-box;background:scroll rgb(255, 255, 255) none  repeat;width:1920px;height:921px;;animation:none"><g style="transform:matrix(-1, 0, 0, -1, 1920, 921);;animation:none"><linearGradient y2="1" y1="0" x2="0" x1="0" id="lg-ca780xlr0a"><stop offset="0" stop-color="#0014b6"></stop>

  
<stop offset="1" stop-color="#00ffff"></stop></linearGradient>
<path opacity="0.4" fill="url(#lg-ca780xlr0a)" d="M 0 0 L 781.36 0 Q 785.28 92.1 742.16 184.2 T 676.6 368.4 T 669.34 552.6 T 442.83 736.8 T 368.26 921 L 0 921 Z" style="fill:url('#lg-ca780xlr0a');opacity:0.4;;animation:none"></path>
<path opacity="0.4" fill="url(#lg-ca780xlr0a)" d="M 0 0 L 848.228 0 Q 763.745 92.1 742.079 184.2 T 693.427 368.4 T 533.226 552.6 T 546.056 736.8 T 463.039 921 L 0 921 Z" style="fill:url('#lg-ca780xlr0a');opacity:0.4;;animation:none"></path>
<path opacity="0.4" fill="url(#lg-ca780xlr0a)" d="M 0 0 L 902.484 0 Q 746.049 92.1 709.299 184.2 T 616.517 368.4 T 593.029 552.6 T 541.777 736.8 T 481.015 921 L 0 921 Z" style="fill:url('#lg-ca780xlr0a');opacity:0.4;;animation:none"></path>
<path opacity="0.4" fill="url(#lg-ca780xlr0a)" d="M 0 0 L 784.832 0 Q 772.032 92.1 727.827 184.2 T 670.597 368.4 T 577.241 552.6 T 532.889 736.8 T 358.001 921 L 0 921 Z" style="fill:url('#lg-ca780xlr0a');opacity:0.4;;animation:none"></path>
<path opacity="0.4" fill="url(#lg-ca780xlr0a)" d="M 0 0 L 786.449 0 Q 824.013 92.1 793.985 184.2 T 689.8 368.4 T 545.917 552.6 T 534.975 736.8 T 453.977 921 L 0 921 Z" style="fill:url('#lg-ca780xlr0a');opacity:0.4;;animation:none"></path>
<g></g></g><!-- [ldio] generated by https://loading.io --></svg>