<svg xmlns="http://www.w3.org/2000/svg" viewBox="0 0 1920 921" preserveAspectRatio="xMidYMid" width="1920" height="921" xmlns:xlink="http://www.w3.org/1999/xlink" style="shape-rendering:auto;display:block;background-position-x:0%;background-position-y:0%;background-size:auto;background-origin:padding-box;background-clip:border-box;background:scroll rgb(255, 255, 255) none  repeat;width:1920px;height:921px;;animation:none"><g><linearGradient y2="0" y1="0" x2="1" x1="0" id="lg-o578w6yh81n"><stop offset="0" stop-color="#5177dd"></stop>

  
<stop offset="1" stop-color="#255cdb"></stop></linearGradient>
<path opacity="0.4" fill="url(#lg-o578w6yh81n)" d="M 0 0 L 0 623.23 Q 192 593.98 384 573.97 T 768 439.12 T 1152 397.13 T 1536 460.28 T 1920 364.96 L 1920 0 Z" style="fill:url('#lg-o578w6yh81n');opacity:0.4;;animation:none"></path>
<path opacity="0.4" fill="url(#lg-o578w6yh81n)" d="M 0 0 L 0 575.803 Q 192 552.16 384 527.336 T 768 460.491 T 1152 376.34 T 1536 300.822 T 1920 301.325 L 1920 0 Z" style="fill:url('#lg-o578w6yh81n');opacity:0.4;;animation:none"></path>
<path opacity="0.4" fill="url(#lg-o578w6yh81n)" d="M 0 0 L 0 590.406 Q 192 642.14 384 617.92 T 768 412.431 T 1152 449.68 T 1536 348.693 T 1920 284.322 L 1920 0 Z" style="fill:url('#lg-o578w6yh81n');opacity:0.4;;animation:none"></path>
<path opacity="0.4" fill="url(#lg-o578w6yh81n)" d="M 0 0 L 0 630.033 Q 192 539.599 384 514.878 T 768 537.922 T 1152 419.226 T 1536 456.621 T 1920 359.587 L 1920 0 Z" style="fill:url('#lg-o578w6yh81n');opacity:0.4;;animation:none"></path>
<path opacity="0.4" fill="url(#lg-o578w6yh81n)" d="M 0 0 L 0 659.373 Q 192 559.889 384 538.544 T 768 453.597 T 1152 466.046 T 1536 293.614 T 1920 230.785 L 1920 0 Z" style="fill:url('#lg-o578w6yh81n');opacity:0.4;;animation:none"></path>
<g></g></g><!-- [ldio] generated by https://loading.io --></svg>